<svg width="8.000000" height="14.000000" viewBox="0 0 8 14" fill="none" xmlns="http://www.w3.org/2000/svg" xmlns:xlink="http://www.w3.org/1999/xlink">
	<desc>
			Created with Pixso.
	</desc>
	<defs/>
	<path id="$" d="M3.76 13.4L2.88 13.4L2.88 12.18C0.55 12.04 -0.91 10.82 -0.99 8.75L0.99 8.75C1.06 9.77 1.83 10.34 2.88 10.45L2.88 7.19L2.26 7.03C0.44 6.56 -0.69 5.65 -0.69 4.06C-0.7 2.24 0.8 0.99 2.88 0.81L2.88 -0.44L3.76 -0.44L3.76 0.8C5.9 0.94 7.33 2.22 7.36 3.99L5.43 3.99C5.34 3.16 4.72 2.63 3.76 2.51L3.76 5.59L4.26 5.72C5.93 6.11 7.51 6.99 7.52 8.91C7.51 10.75 6.14 12.03 3.76 12.18L3.76 13.4ZM1.34 3.93C1.33 4.74 2.08 5.13 2.88 5.37L2.88 2.52C1.91 2.66 1.34 3.21 1.34 3.93ZM3.76 7.42L3.76 10.45C4.81 10.31 5.5 9.72 5.51 8.89C5.5 8.09 4.82 7.71 3.76 7.42Z" fill="#0D1B39" fill-opacity="1.000000" fill-rule="evenodd"/>
</svg>
