<svg width="25.000000" height="29.000000" viewBox="0 0 25 29" fill="none" xmlns="http://www.w3.org/2000/svg" xmlns:xlink="http://www.w3.org/1999/xlink">
	<desc>
			Created with Pixso.
	</desc>
	<defs/>
	<path id="Combined-Shape" d="M12 -0.17C15.8 -0.17 18.92 2.81 19.08 6.59L19.04 6.59C19.05 6.7 19.02 6.81 18.98 6.91L19.2 6.91C20.92 6.91 22.73 8.11 23.45 10.99L23.53 11.33L24.62 20.11C25.41 25.7 22.34 28.06 18.17 28.16L17.89 28.16L6.14 28.16C1.9 28.16 -1.37 26.61 -0.66 20.49L-0.61 20.11L0.5 11.33C1.04 8.22 2.86 7 4.62 6.92L4.81 6.91L4.93 6.91C4.91 6.81 4.91 6.7 4.93 6.59C5.08 2.81 8.21 -0.17 12 -0.17ZM7.88 11.63C7.19 11.63 6.63 12.21 6.63 12.92C6.63 13.63 7.19 14.21 7.88 14.21C8.57 14.21 9.13 13.63 9.13 12.92L9.12 12.76C9.05 12.12 8.52 11.63 7.88 11.63ZM16.08 11.63C15.39 11.63 14.83 12.21 14.83 12.92C14.83 13.63 15.39 14.21 16.08 14.21C16.77 14.21 17.34 13.63 17.34 12.92C17.34 12.21 16.77 11.63 16.08 11.63ZM11.95 1.67C9.22 1.67 7.01 3.88 7.01 6.59C7.03 6.7 7.03 6.81 7.01 6.91L16.94 6.91C16.9 6.81 16.88 6.7 16.88 6.59C16.88 3.88 14.67 1.67 11.95 1.67Z" fill="#FFFFFF" fill-opacity="1.000000" fill-rule="nonzero"/>
</svg>
