<svg width="20.000000" height="19.000000" viewBox="0 0 20 19" fill="none" xmlns="http://www.w3.org/2000/svg" xmlns:xlink="http://www.w3.org/1999/xlink">
	<desc>
			Created with Pixso.
	</desc>
	<defs/>
	<path id="Vector" d="M17.74 7.81L10.77 7.81L10.77 0.85C10.77 0.08 10.15 -0.54 9.38 -0.54C8.61 -0.54 7.99 0.08 7.99 0.85L7.99 7.81L1.03 7.81C0.26 7.81 -0.37 8.44 -0.37 9.21C-0.37 9.97 0.26 10.6 1.03 10.6L7.99 10.6L7.99 17.56C7.99 18.33 8.61 18.95 9.38 18.95C10.15 18.95 10.77 18.33 10.77 17.56L10.77 10.6L17.74 10.6C18.51 10.6 19.13 9.97 19.13 9.21C19.13 8.44 18.51 7.81 17.74 7.81Z" fill="#FFFFFF" fill-opacity="1.000000" fill-rule="nonzero"/>
</svg>
