<svg width="18.000000" height="18.000000" viewBox="0 0 18 18" fill="none" xmlns="http://www.w3.org/2000/svg" xmlns:xlink="http://www.w3.org/1999/xlink">
	<desc>
			Created with Pixso.
	</desc>
	<defs>
		<clipPath id="clip324_7">
			<rect width="18.000000" height="18.000000" fill="white" fill-opacity="0"/>
		</clipPath>
	</defs>
	<rect width="18.000000" height="18.000000" fill="#FFFFFF" fill-opacity="0"/>
	<g clip-path="url(#clip324_7)">
		<path d="M15.75 15.75L12.38 12.37M12.38 12.38C11.18 13.57 9.56 14.25 7.87 14.25C6.18 14.25 4.56 13.57 3.36 12.38C2.17 11.18 1.5 9.56 1.5 7.87C1.5 6.18 2.17 4.56 3.36 3.36C4.56 2.17 6.18 1.5 7.87 1.5C9.56 1.5 11.18 2.17 12.38 3.36C13.57 4.56 14.25 6.18 14.25 7.87C14.25 9.56 13.57 11.18 12.38 12.38Z" stroke="#FFFFFF" stroke-opacity="1.000000" stroke-width="2.000000" stroke-linecap="round"/>
	</g>
</svg>
