<svg width="16.000000" height="15.000000" viewBox="0 0 16 15" fill="none" xmlns="http://www.w3.org/2000/svg" xmlns:xlink="http://www.w3.org/1999/xlink">
	<desc>
			Created with Pixso.
	</desc>
	<defs/>
	<path id="Vector" d="M11.97 8.9C11.77 9.09 11.68 9.37 11.72 9.64L12.4 13.39C12.46 13.71 12.32 14.03 12.06 14.21C11.8 14.4 11.45 14.42 11.17 14.27L7.79 12.51C7.68 12.45 7.55 12.42 7.41 12.41L7.21 12.41C7.14 12.42 7.07 12.45 7 12.48L3.63 14.25C3.46 14.33 3.27 14.36 3.09 14.33C2.64 14.25 2.34 13.82 2.41 13.37L3.09 9.62C3.13 9.34 3.04 9.07 2.84 8.87L0.09 6.21C-0.14 5.98 -0.22 5.65 -0.11 5.35C-0.01 5.04 0.25 4.82 0.57 4.78L4.35 4.23C4.64 4.2 4.89 4.02 5.02 3.76L6.69 0.34C6.73 0.27 6.78 0.2 6.84 0.14L6.91 0.08C6.95 0.04 6.99 0.01 7.03 -0.02L7.12 -0.05L7.25 -0.1L7.57 -0.1C7.85 -0.07 8.1 0.1 8.24 0.36L9.93 3.76C10.05 4.01 10.29 4.18 10.56 4.23L14.34 4.78C14.66 4.82 14.93 5.04 15.04 5.35C15.14 5.65 15.05 5.99 14.82 6.21L11.97 8.9Z" fill="#F6B76F" fill-opacity="1.000000" fill-rule="nonzero"/>
</svg>
